<svg xmlns="http://www.w3.org/2000/svg" viewBox="0 0 960 560" role="img" aria-labelledby="title desc">
  <title id="title">Non-branded fight card board</title>
  <desc id="desc">An abstract MMA fight card board with red and blue corners, a cage outline, and blank bout rows.</desc>
  <defs>
    <linearGradient id="bg" x1="0" x2="1" y1="0" y2="1">
      <stop stop-color="#171717"/>
      <stop offset=".48" stop-color="#24201c"/>
      <stop offset="1" stop-color="#0f2f2b"/>
    </linearGradient>
    <linearGradient id="cornerA" x1="0" x2="1">
      <stop stop-color="#d3343b"/>
      <stop offset="1" stop-color="#61171c"/>
    </linearGradient>
    <linearGradient id="cornerB" x1="0" x2="1">
      <stop stop-color="#226fc0"/>
      <stop offset="1" stop-color="#102f59"/>
    </linearGradient>
    <filter id="shadow" x="-10%" y="-20%" width="120%" height="140%">
      <feDropShadow dx="0" dy="20" stdDeviation="18" flood-color="#000" flood-opacity=".32"/>
    </filter>
  </defs>
  <rect width="960" height="560" rx="28" fill="url(#bg)"/>
  <path d="M0 0h320L126 560H0Z" fill="#d3343b" opacity=".18"/>
  <path d="M960 0H640l194 560h126Z" fill="#226fc0" opacity=".2"/>
  <g opacity=".22" stroke="#f4eee1" stroke-width="2">
    <path d="M276 88h408l96 126-54 190H234l-54-190Z"/>
    <path d="M333 137h294l70 91-39 127H302l-39-127Z"/>
    <path d="M480 88v316M276 88l450 316M684 88 234 404"/>
  </g>
  <g filter="url(#shadow)">
    <rect x="120" y="102" width="720" height="356" rx="18" fill="#f5f0e8"/>
    <rect x="142" y="124" width="676" height="58" rx="10" fill="#1b1c1f"/>
    <rect x="160" y="144" width="160" height="18" rx="9" fill="#d6b357"/>
    <rect x="640" y="144" width="146" height="18" rx="9" fill="#f5f0e8" opacity=".32"/>
    <g fill="#ffffff" stroke="#d9d1c2" stroke-width="1.5">
      <rect x="142" y="204" width="676" height="58" rx="10"/>
      <rect x="142" y="278" width="676" height="58" rx="10"/>
      <rect x="142" y="352" width="676" height="58" rx="10"/>
    </g>
    <g>
      <rect x="162" y="220" width="132" height="26" rx="13" fill="url(#cornerA)"/>
      <rect x="666" y="220" width="132" height="26" rx="13" fill="url(#cornerB)"/>
      <rect x="162" y="294" width="132" height="26" rx="13" fill="url(#cornerA)"/>
      <rect x="666" y="294" width="132" height="26" rx="13" fill="url(#cornerB)"/>
      <rect x="162" y="368" width="132" height="26" rx="13" fill="url(#cornerA)"/>
      <rect x="666" y="368" width="132" height="26" rx="13" fill="url(#cornerB)"/>
    </g>
    <g fill="#302c26" opacity=".2">
      <rect x="338" y="222" width="150" height="12" rx="6"/>
      <rect x="516" y="222" width="98" height="12" rx="6"/>
      <rect x="338" y="296" width="150" height="12" rx="6"/>
      <rect x="516" y="296" width="98" height="12" rx="6"/>
      <rect x="338" y="370" width="150" height="12" rx="6"/>
      <rect x="516" y="370" width="98" height="12" rx="6"/>
    </g>
  </g>
</svg>
